<?xml version="1.0" encoding="utf-8"?>
<!-- Generator: Adobe Illustrator 16.0.0, SVG Export Plug-In . SVG Version: 6.00 Build 0)  -->
<!DOCTYPE svg PUBLIC "-//W3C//DTD SVG 1.1//EN" "http://www.w3.org/Graphics/SVG/1.1/DTD/svg11.dtd">
<svg version="1.1" id="Layer_1" xmlns="http://www.w3.org/2000/svg" xmlns:xlink="http://www.w3.org/1999/xlink" x="0px" y="0px"
	 width="455px" height="240px" viewBox="0 0 455 240" enable-background="new 0 0 455 240" xml:space="preserve">
<g>
	<g>
		<defs>
			<rect id="SVGID_1_" x="-500.449" y="-206.6" width="1018.449" height="1018.448"/>
		</defs>
		<clipPath id="SVGID_2_">
			<use xlink:href="#SVGID_1_"  overflow="visible"/>
		</clipPath>
		<g opacity="0.65" clip-path="url(#SVGID_2_)">
			<g>
				<defs>
					<rect id="SVGID_3_" x="33.311" y="41.348" width="406.105" height="192.103"/>
				</defs>
				<clipPath id="SVGID_4_">
					<use xlink:href="#SVGID_3_"  overflow="visible"/>
				</clipPath>
				<path clip-path="url(#SVGID_4_)" fill="#B3B3B3" d="M235.093,41.349H66.43c-18.291,0-33.12,14.828-33.12,33.12v86.726
					c0,15.45,10.685,28.852,25.749,32.289l176.033,39.964l178.575-39.964c15.063-3.438,25.752-16.839,25.752-32.289V74.469
					c0-18.292-14.831-33.12-33.124-33.12H235.093z"/>
			</g>
		</g>
		<path clip-path="url(#SVGID_2_)" fill="#FFD700" d="M221.85,26.992H51.597c-17.412,0-31.53,14.116-31.53,31.529v82.559
			c0,14.71,10.172,27.465,24.514,30.738l177.269,40.47l179.66-39.042c14.342-3.273,26.31-17.753,26.31-32.462V57.821
			c0-17.413-16.112-32.674-33.521-32.674L221.85,26.992z"/>
		<path clip-path="url(#SVGID_2_)" fill="#010101" d="M197.713,82.038c0,5.317-4.308,9.627-9.627,9.627
			c-5.316,0-9.627-4.311-9.627-9.627s4.311-9.629,9.627-9.629C193.405,72.409,197.713,76.721,197.713,82.038"/>
		<path clip-path="url(#SVGID_2_)" fill="#010101" d="M270.119,82.038c0,5.317-4.31,9.627-9.628,9.627
			c-5.315,0-9.628-4.311-9.628-9.627s4.313-9.629,9.628-9.629C265.81,72.409,270.119,76.721,270.119,82.038"/>
		<path clip-path="url(#SVGID_2_)" fill="#010101" d="M199.94,82.038c0-4.537-3.818-11.856-11.854-11.856
			c-6.766,0-12.017,5.252-12.017,11.856h-6.285c-3.03,0-5.488-2.459-5.488-5.49v-2.865c0-1.934,1.566-3.5,3.501-3.5v-4.773
			c0-4.307,3.49-7.797,7.797-7.797h2.605c0.585,0,1.16-0.156,1.67-0.449l11.274-6.507c4.931-2.845,10.52-4.342,16.213-4.342h9.293
			V42.89c0-1.011,0.819-1.829,1.83-1.829h0.421c0.688,0,1.337,0.32,1.755,0.863c0.601,0.781,0.927,1.739,0.927,2.727v1.662h3.259
			c3.695,0,7.313,1.041,10.442,3.001l17.29,10.837c0.342,0.214,0.716,0.377,1.105,0.48l22.092,4.691
			c3.295,0.698,5.646,3.606,5.646,6.97v3.3c1.158,0.021,2.081,0.97,2.069,2.126l-0.036,2.819c-0.008,0.832-0.685,1.5-1.516,1.5
			h-9.588c0-2.732-2.388-11.696-11.855-11.696s-11.537,8.645-11.537,11.696H199.94z"/>
		<path clip-path="url(#SVGID_2_)" fill="#FFD700" d="M189.589,57.238l5.522-3.886c3.712-2.614,8.144-4.017,12.683-4.017h5.355
			v10.025h-22.889C189.121,59.361,188.658,57.895,189.589,57.238"/>
		<path clip-path="url(#SVGID_2_)" fill="#FFD700" d="M216.57,49.336v10.025h23.739c1.289,0,1.81-1.658,0.752-2.394l-6.58-4.58
			c-2.853-1.988-6.247-3.051-9.723-3.051H216.57z"/>
	</g>
	<g>
		<defs>
			<path id="SVGID_5_" d="M224.85,26.992H54.597c-17.414,0-31.53,14.115-31.53,31.529v82.561c0,14.708,10.17,27.463,24.514,30.736
				l177.269,40.471l177.266-40.471c14.343-3.273,24.51-16.028,24.51-30.736V58.521c0-17.414-14.11-31.529-31.522-31.529H224.85z"/>
		</defs>
		<clipPath id="SVGID_6_">
			<use xlink:href="#SVGID_5_"  overflow="visible"/>
		</clipPath>
		<polygon clip-path="url(#SVGID_6_)" fill="#FFD700" points="140.83,68.172 156.738,68.244 150.876,56.259 140.882,56.214 		"/>
		
			<rect x="140.804" y="68.206" transform="matrix(-1 -0.0045 0.0045 -1 297.1761 149.0466)" clip-path="url(#SVGID_6_)" fill="#010101" width="15.907" height="11.96"/>
		
			<rect x="128.898" y="56.188" transform="matrix(-1 -0.0045 0.0045 -1 269.4733 124.9387)" clip-path="url(#SVGID_6_)" fill="#010101" width="11.958" height="11.957"/>
		
			<rect x="128.846" y="68.145" transform="matrix(-1 -0.0045 0.0045 -1 269.3141 148.854)" clip-path="url(#SVGID_6_)" fill="#FFD700" width="11.956" height="11.959"/>
		
			<rect x="116.941" y="56.133" transform="matrix(-1 -0.0045 0.0045 -1 245.5612 124.7731)" clip-path="url(#SVGID_6_)" fill="#FFD700" width="11.957" height="11.96"/>
		
			<rect x="116.886" y="68.092" transform="matrix(-1 -0.0044 0.0044 -1 245.4036 148.6836)" clip-path="url(#SVGID_6_)" fill="#010101" width="11.959" height="11.959"/>
		<polygon clip-path="url(#SVGID_6_)" fill="#010101" points="104.957,68.012 116.915,68.066 116.964,56.109 105.008,56.054 		"/>
		
			<rect x="104.929" y="68.039" transform="matrix(-1 -0.0045 0.0045 -1 221.4824 148.534)" clip-path="url(#SVGID_6_)" fill="#FFD700" width="11.959" height="11.959"/>
		
			<rect x="93.025" y="56.027" transform="matrix(-1 -0.0045 0.0045 -1 197.7299 124.4532)" clip-path="url(#SVGID_6_)" fill="#FFD700" width="11.958" height="11.959"/>
		
			<rect x="92.972" y="67.985" transform="matrix(-1 -0.0045 0.0045 -1 197.5671 148.3724)" clip-path="url(#SVGID_6_)" fill="#010101" width="11.957" height="11.959"/>
		
			<rect x="81.066" y="55.975" transform="matrix(-1 -0.0045 0.0045 -1 173.8107 124.298)" clip-path="url(#SVGID_6_)" fill="#010101" width="11.958" height="11.959"/>
		
			<rect x="81.012" y="67.933" transform="matrix(-1 -0.0044 0.0044 -1 173.6566 148.2076)" clip-path="url(#SVGID_6_)" fill="#FFD700" width="11.96" height="11.959"/>
		
			<rect x="69.107" y="55.922" transform="matrix(-1 -0.0044 0.0044 -1 149.9027 124.1292)" clip-path="url(#SVGID_6_)" fill="#FFD700" width="11.96" height="11.959"/>
		
			<rect x="69.056" y="67.881" transform="matrix(-1 -0.0045 0.0045 -1 149.7388 148.052)" clip-path="url(#SVGID_6_)" fill="#010101" width="11.957" height="11.957"/>
		
			<rect x="57.151" y="55.869" transform="matrix(-1 -0.0044 0.0044 -1 125.9849 123.9741)" clip-path="url(#SVGID_6_)" fill="#010101" width="11.957" height="11.959"/>
		
			<rect x="57.096" y="67.826" transform="matrix(-1 -0.0045 0.0045 -1 125.8213 147.8903)" clip-path="url(#SVGID_6_)" fill="#FFD700" width="11.959" height="11.959"/>
		
			<rect x="45.192" y="55.814" transform="matrix(-1 -0.0045 0.0045 -1 102.0647 123.8166)" clip-path="url(#SVGID_6_)" fill="#FFD700" width="11.959" height="11.959"/>
		<polygon clip-path="url(#SVGID_6_)" fill="#010101" points="45.114,79.704 57.071,79.758 57.123,67.801 45.164,67.746 		"/>
		
			<rect x="33.235" y="55.762" transform="matrix(-1 -0.0045 0.0045 -1 78.1516 123.6568)" clip-path="url(#SVGID_6_)" fill="#010101" width="11.957" height="11.959"/>
		
			<rect x="33.18" y="67.72" transform="matrix(-1 -0.0044 0.0044 -1 77.994 147.5704)" clip-path="url(#SVGID_6_)" fill="#FFD700" width="11.959" height="11.959"/>
		
			<rect x="21.276" y="55.71" transform="matrix(-1 -0.0045 0.0045 -1 54.2324 123.4983)" clip-path="url(#SVGID_6_)" fill="#FFD700" width="11.959" height="11.957"/>
		
			<rect x="21.223" y="67.668" transform="matrix(-1 -0.0045 0.0045 -1 54.0758 147.4133)" clip-path="url(#SVGID_6_)" fill="#010101" width="11.959" height="11.958"/>
		
			<rect x="9.318" y="55.655" transform="matrix(-1 -0.0045 0.0045 -1 30.3212 123.337)" clip-path="url(#SVGID_6_)" fill="#010101" width="11.959" height="11.96"/>
		
			<rect x="9.264" y="67.613" transform="matrix(-1 -0.0045 0.0045 -1 30.1557 147.2523)" clip-path="url(#SVGID_6_)" fill="#FFD700" width="11.959" height="11.959"/>
		
			<rect x="-5.639" y="55.603" transform="matrix(-1 -0.0045 0.0045 -1 0.4031 123.165)" clip-path="url(#SVGID_6_)" fill="#FFD700" width="11.959" height="11.957"/>
		
			<rect x="-5.694" y="67.561" transform="matrix(-1 -0.0045 0.0045 -1 0.2435 147.0801)" clip-path="url(#SVGID_6_)" fill="#010101" width="11.959" height="11.957"/>
		
			<rect x="-17.597" y="55.549" transform="matrix(-1 -0.0044 0.0044 -1 -23.5065 123.0048)" clip-path="url(#SVGID_6_)" fill="#010101" width="11.959" height="11.959"/>
		
			<rect x="-17.651" y="67.508" transform="matrix(-1 -0.0044 0.0044 -1 -23.6637 146.9219)" clip-path="url(#SVGID_6_)" fill="#FFD700" width="11.959" height="11.959"/>
		
			<rect x="-29.555" y="55.497" transform="matrix(-1 -0.0045 0.0045 -1 -47.4292 122.8442)" clip-path="url(#SVGID_6_)" fill="#FFD700" width="11.957" height="11.958"/>
		
			<rect x="-29.609" y="67.455" transform="matrix(-1 -0.0044 0.0044 -1 -47.5824 146.7623)" clip-path="url(#SVGID_6_)" fill="#010101" width="11.959" height="11.957"/>
		<polygon clip-path="url(#SVGID_6_)" fill="#010101" points="-44.53,67.361 -29.583,67.428 -29.529,55.469 -38.498,55.43 		"/>
		
			<rect x="-44.556" y="67.395" transform="matrix(-1 -0.0043 0.0043 -1 -74.4801 146.5875)" clip-path="url(#SVGID_6_)" fill="#FFD700" width="14.949" height="11.957"/>
		<polygon clip-path="url(#SVGID_6_)" fill="#FFD700" points="312.627,68.172 296.718,68.244 302.577,56.259 312.572,56.214 		"/>
		
			<rect x="296.744" y="68.206" transform="matrix(1 -0.0045 0.0045 1 -0.3338 1.3848)" clip-path="url(#SVGID_6_)" fill="#010101" width="15.909" height="11.96"/>
		
			<rect x="312.6" y="56.188" transform="matrix(1 -0.0045 0.0045 1 -0.2761 1.4319)" clip-path="url(#SVGID_6_)" fill="#010101" width="11.955" height="11.957"/>
		
			<rect x="312.653" y="68.145" transform="matrix(1 -0.0045 0.0045 1 -0.3297 1.4319)" clip-path="url(#SVGID_6_)" fill="#FFD700" width="11.958" height="11.959"/>
		
			<rect x="324.556" y="56.133" transform="matrix(1 -0.0045 0.0045 1 -0.2732 1.4716)" clip-path="url(#SVGID_6_)" fill="#FFD700" width="11.959" height="11.96"/>
		
			<rect x="324.61" y="68.092" transform="matrix(1 -0.0044 0.0044 1 -0.3234 1.4585)" clip-path="url(#SVGID_6_)" fill="#010101" width="11.959" height="11.959"/>
		
			<rect x="336.515" y="56.082" transform="matrix(1 -0.0045 0.0045 1 -0.2777 1.5528)" clip-path="url(#SVGID_6_)" fill="#010101" width="11.959" height="11.957"/>
		
			<rect x="336.569" y="68.039" transform="matrix(1 -0.0045 0.0045 1 -0.3291 1.5396)" clip-path="url(#SVGID_6_)" fill="#FFD700" width="11.956" height="11.959"/>
		
			<rect x="348.474" y="56.027" transform="matrix(1 -0.0045 0.0045 1 -0.2725 1.5782)" clip-path="url(#SVGID_6_)" fill="#FFD700" width="11.958" height="11.959"/>
		
			<rect x="348.526" y="67.985" transform="matrix(1 -0.0045 0.0045 1 -0.3286 1.593)" clip-path="url(#SVGID_6_)" fill="#010101" width="11.958" height="11.959"/>
		
			<rect x="360.431" y="55.975" transform="matrix(1 -0.0045 0.0045 1 -0.2746 1.6463)" clip-path="url(#SVGID_6_)" fill="#010101" width="11.959" height="11.959"/>
		
			<rect x="360.484" y="67.933" transform="matrix(1 -0.0044 0.0044 1 -0.3224 1.6168)" clip-path="url(#SVGID_6_)" fill="#FFD700" width="11.958" height="11.959"/>
		
			<rect x="372.39" y="55.922" transform="matrix(1 -0.0044 0.0044 1 -0.2669 1.654)" clip-path="url(#SVGID_6_)" fill="#FFD700" width="11.956" height="11.959"/>
		
			<rect x="372.443" y="67.881" transform="matrix(1 -0.0045 0.0045 1 -0.325 1.6849)" clip-path="url(#SVGID_6_)" fill="#010101" width="11.959" height="11.957"/>
		
			<rect x="384.347" y="55.869" transform="matrix(1 -0.0044 0.0044 1 -0.269 1.7219)" clip-path="url(#SVGID_6_)" fill="#010101" width="11.958" height="11.959"/>
		
			<rect x="384.4" y="67.826" transform="matrix(1 -0.0045 0.0045 1 -0.3246 1.7379)" clip-path="url(#SVGID_6_)" fill="#FFD700" width="11.96" height="11.959"/>
		
			<rect x="396.305" y="55.814" transform="matrix(1 -0.0045 0.0045 1 -0.2735 1.8074)" clip-path="url(#SVGID_6_)" fill="#FFD700" width="11.959" height="11.959"/>
		
			<rect x="396.359" y="67.774" transform="matrix(1 -0.0045 0.0045 1 -0.3273 1.8085)" clip-path="url(#SVGID_6_)" fill="#010101" width="11.954" height="11.957"/>
		
			<rect x="408.264" y="55.762" transform="matrix(1 -0.0045 0.0045 1 -0.2707 1.8442)" clip-path="url(#SVGID_6_)" fill="#010101" width="11.959" height="11.959"/>
		
			<rect x="408.316" y="67.72" transform="matrix(1 -0.0044 0.0044 1 -0.321 1.8276)" clip-path="url(#SVGID_6_)" fill="#FFD700" width="11.959" height="11.959"/>
		
			<rect x="420.221" y="55.71" transform="matrix(1 -0.0045 0.0045 1 -0.2728 1.9148)" clip-path="url(#SVGID_6_)" fill="#FFD700" width="11.959" height="11.957"/>
		
			<rect x="420.275" y="67.668" transform="matrix(1 -0.0045 0.0045 1 -0.3236 1.8979)" clip-path="url(#SVGID_6_)" fill="#010101" width="11.958" height="11.958"/>
		
			<rect x="432.18" y="55.655" transform="matrix(1 -0.0045 0.0045 1 -0.2701 1.9514)" clip-path="url(#SVGID_6_)" fill="#010101" width="11.954" height="11.96"/>
		<polygon clip-path="url(#SVGID_6_)" fill="#FFD700" points="444.219,79.545 432.259,79.599 432.208,67.64 444.162,67.587 		"/>
	</g>
	<g>
		<defs>
			<rect id="SVGID_7_" x="-500.449" y="-206.6" width="1018.449" height="1018.448"/>
		</defs>
		<clipPath id="SVGID_8_">
			<use xlink:href="#SVGID_7_"  overflow="visible"/>
		</clipPath>
		<path clip-path="url(#SVGID_8_)" fill="none" stroke="#010101" stroke-width="4.375" stroke-miterlimit="10" d="M223.493,23.485
			H54.831c-18.291,0-33.119,14.828-33.119,33.12v86.725c0,15.451,10.686,28.851,25.749,32.29l176.032,39.968l178.579-39.968
			c15.061-3.439,25.747-16.839,25.747-32.29V56.605c0-18.292-14.831-33.12-33.119-33.12H223.493z"/>
	</g>
</g>
<path d="M82.13,122.52h-9.46v-4.289h-3.52v24.75H73V152H49.9v-9.02h3.85v-24.75h-3.52v4.289h-9.46v-13.31h41.36V122.52z"/>
<path d="M115.076,142.98V152h-14.52v-3.74c-0.807,1.174-1.935,2.219-3.383,3.135c-1.449,0.917-3.217,1.375-5.307,1.375
	c-2.75,0-4.914-0.733-6.49-2.199c-1.577-1.467-2.365-3.538-2.365-6.215c0-6.931,5.885-10.486,17.655-10.671
	c-0.11-1.246-0.587-2.099-1.43-2.557c-0.844-0.458-2.274-0.688-4.29-0.688c-1.65,0-3.419,0.174-5.307,0.522
	c-1.889,0.349-3.622,0.816-5.198,1.402v-10.12c1.943-0.477,4.051-0.861,6.325-1.155c2.273-0.293,4.491-0.439,6.655-0.439
	c5.463,0,9.368,0.989,11.715,2.97c2.346,1.979,3.52,5.042,3.52,9.185v10.176H115.076z M100.556,139.13
	c-1.65,0-2.925,0.22-3.823,0.66c-0.899,0.44-1.347,1.174-1.347,2.2c0,0.624,0.192,1.127,0.577,1.513
	c0.385,0.385,0.926,0.577,1.623,0.577c0.953,0,1.686-0.403,2.2-1.21c0.513-0.807,0.77-1.943,0.77-3.41V139.13z"/>
<path d="M148.405,142.98h1.76V152h-17.16v-9.02h1.54l-2.145-3.245h-0.55l-2.145,3.245h1.54V152h-14.74v-9.02h2.31l6.655-5.94
	l-6.985-6.6h-1.76v-9.021h17.16v9.021h-1.54l2.145,3.189h0.55l2.145-3.189h-1.54v-9.021h14.3v9.021h-2.31l-6.325,5.829
	L148.405,142.98z"/>
<path d="M151.814,152v-9.02h2.42v-12.54h-2.42v-9.021h15.07v21.561h2.42V152H151.814z M154.454,118.395v-9.185h11.22v9.185H154.454z
	"/>
<path d="M194.521,151.862c-3.136-0.604-5.547-1.292-7.233-2.063v-10.89h12.101c0,1.137,0.256,1.962,0.77,2.475
	c0.514,0.514,1.448,0.771,2.806,0.771c1.136,0,1.952-0.174,2.447-0.522s0.742-0.871,0.742-1.567c0-0.587-0.238-1.091-0.715-1.513
	c-0.477-0.421-1.302-0.853-2.475-1.293l-4.73-1.649c-4.07-1.54-6.994-3.355-8.772-5.445c-1.779-2.09-2.667-4.913-2.667-8.47
	c0-4.326,1.42-7.618,4.262-9.873s7.581-3.382,14.218-3.382c3.19,0,6.188,0.321,8.992,0.962c2.806,0.643,5.069,1.494,6.793,2.558
	v9.845h-11c0-1.833-1.137-2.75-3.41-2.75c-1.1,0-1.879,0.138-2.338,0.413c-0.458,0.274-0.688,0.761-0.688,1.457
	c0,0.624,0.266,1.119,0.798,1.485c0.531,0.367,1.402,0.752,2.612,1.155l4.785,1.649c3.887,1.32,6.719,3.034,8.498,5.143
	c1.777,2.109,2.667,4.867,2.667,8.277c0,4.657-1.567,8.177-4.702,10.561s-7.728,3.574-13.777,3.574
	C200.983,152.77,197.656,152.468,194.521,151.862z"/>
<path d="M228.593,148.673c-2.934-2.731-4.4-6.719-4.4-11.963c0-5.243,1.467-9.23,4.4-11.963c2.934-2.73,7.003-4.097,12.21-4.097
	c5.17,0,8.9,1.347,11.192,4.042c2.291,2.695,3.438,6.042,3.438,10.038v3.96h-17.819v0.329c0,1.357,0.402,2.356,1.21,2.998
	c0.806,0.642,2.145,0.963,4.015,0.963c2.236,0,4.363-0.165,6.38-0.495s3.776-0.751,5.28-1.266v8.8
	c-1.284,0.697-3.163,1.33-5.638,1.898c-2.475,0.567-5.161,0.852-8.058,0.852C235.596,152.77,231.526,151.404,228.593,148.673z
	 M243.993,132.64v-0.659c0-1.246-0.267-2.146-0.798-2.695c-0.532-0.55-1.329-0.825-2.393-0.825s-1.861,0.284-2.393,0.853
	c-0.532,0.569-0.797,1.457-0.797,2.668v0.659H243.993z"/>
<path d="M282.658,120.87c0.659,0.146,1.21,0.33,1.649,0.55v10.505c-1.504-0.623-3.117-0.935-4.84-0.935
	c-2.31,0-4.089,0.604-5.335,1.814c-1.247,1.21-1.87,3.007-1.87,5.391v4.785h4.95V152h-20.021v-9.02h2.42v-12.54h-2.42v-9.021h15.07
	v4.015c1.026-1.54,2.2-2.722,3.521-3.547c1.319-0.825,2.915-1.237,4.784-1.237C281.301,120.65,281.998,120.724,282.658,120.87z"/>
<path d="M294.867,152l-6.93-21.56h-2.311v-9.021h16.995v9.021h-2.31l2.915,10.89h0.55l2.915-10.89h-2.311v-9.021h15.95v9.021h-2.31
	L311.257,152H294.867z"/>
<path d="M321.871,152v-9.02h2.42v-12.54h-2.42v-9.021h15.069v21.561h2.421V152H321.871z M324.511,118.395v-9.185h11.22v9.185
	H324.511z"/>
<path d="M345.081,148.673c-2.934-2.731-4.4-6.719-4.4-11.963c0-5.243,1.467-9.23,4.4-11.963c2.934-2.73,7.003-4.097,12.21-4.097
	c2.53,0,4.95,0.349,7.26,1.045c2.311,0.696,4.106,1.484,5.391,2.364v10.891h-9.46v-0.99c0-1.21-0.257-2.099-0.771-2.667
	s-1.319-0.853-2.42-0.853c-2.127,0-3.189,1.174-3.189,3.52v4.73c0,2.859,1.631,4.29,4.895,4.29c3.043,0,6.581-0.33,10.615-0.99
	v8.635c-1.247,0.55-2.998,1.045-5.253,1.485c-2.255,0.439-4.592,0.659-7.013,0.659C352.103,152.77,348.015,151.404,345.081,148.673z
	"/>
<path d="M375.99,148.673c-2.934-2.731-4.4-6.719-4.4-11.963c0-5.243,1.467-9.23,4.4-11.963c2.934-2.73,7.003-4.097,12.21-4.097
	c5.17,0,8.9,1.347,11.192,4.042c2.291,2.695,3.438,6.042,3.438,10.038v3.96h-17.819v0.329c0,1.357,0.402,2.356,1.21,2.998
	c0.806,0.642,2.145,0.963,4.015,0.963c2.236,0,4.363-0.165,6.38-0.495s3.776-0.751,5.28-1.266v8.8
	c-1.284,0.697-3.163,1.33-5.638,1.898c-2.475,0.567-5.161,0.852-8.058,0.852C382.993,152.77,378.924,151.404,375.99,148.673z
	 M391.391,132.64v-0.659c0-1.246-0.267-2.146-0.798-2.695c-0.532-0.55-1.329-0.825-2.393-0.825s-1.861,0.284-2.393,0.853
	c-0.532,0.569-0.797,1.457-0.797,2.668v0.659H391.391z"/>
</svg>
